<svg width="353" height="276" viewBox="0 0 353 276" fill="none" xmlns="http://www.w3.org/2000/svg">
<path d="M340.8 1H37.7464C34.555 1 31.9679 3.58715 31.9679 6.77855V237.273C31.9679 240.464 34.555 243.051 37.7464 243.051H340.8C343.991 243.051 346.578 240.464 346.578 237.273V6.77855C346.578 3.58715 343.991 1 340.8 1Z" stroke="#070707" stroke-linecap="round" stroke-linejoin="round"/>
<path d="M31.9678 19.1358H346.578" stroke="#070707" stroke-linecap="round" stroke-linejoin="round"/>
<path d="M71.2111 8.46915H68.4962C67.5943 8.46915 66.8632 9.20026 66.8632 10.1021V12.8171C66.8632 13.7189 67.5943 14.4501 68.4962 14.4501H71.2111C72.113 14.4501 72.8441 13.7189 72.8441 12.8171V10.1021C72.8441 9.20026 72.113 8.46915 71.2111 8.46915Z" fill="#1C0E0C"/>
<path d="M61.0084 8.46915H58.2935C57.3916 8.46915 56.6605 9.20026 56.6605 10.1021V12.8171C56.6605 13.7189 57.3916 14.4501 58.2935 14.4501H61.0084C61.9103 14.4501 62.6414 13.7189 62.6414 12.8171V10.1021C62.6414 9.20026 61.9103 8.46915 61.0084 8.46915Z" fill="#1C0E0C"/>
<path d="M50.8071 8.46915H48.0922C47.1903 8.46915 46.4592 9.20026 46.4592 10.1021V12.8171C46.4592 13.7189 47.1903 14.4501 48.0922 14.4501H50.8071C51.709 14.4501 52.4401 13.7189 52.4401 12.8171V10.1021C52.4401 9.20026 51.709 8.46915 50.8071 8.46915Z" fill="#1C0E0C"/>
<path d="M69.9783 7.37164H67.2634C66.3615 7.37164 65.6304 8.10276 65.6304 9.00464V11.7196C65.6304 12.6214 66.3615 13.3526 67.2634 13.3526H69.9783C70.8802 13.3526 71.6113 12.6214 71.6113 11.7196V9.00464C71.6113 8.10276 70.8802 7.37164 69.9783 7.37164Z" fill="#00864A" stroke="black" stroke-linecap="round" stroke-linejoin="round"/>
<path d="M81.459 8.48001H78.7441C77.8422 8.48001 77.1111 9.21113 77.1111 10.113V12.8279C77.1111 13.7298 77.8422 14.4609 78.7441 14.4609H81.459C82.3609 14.4609 83.092 13.7298 83.092 12.8279V10.113C83.092 9.21113 82.3609 8.48001 81.459 8.48001Z" fill="#1C0E0C"/>
<path d="M80.2261 7.38257H77.5112C76.6093 7.38257 75.8782 8.11369 75.8782 9.01557V11.7305C75.8782 12.6324 76.6093 13.3635 77.5112 13.3635H80.2261C81.128 13.3635 81.8591 12.6324 81.8591 11.7305V9.01557C81.8591 8.11369 81.128 7.38257 80.2261 7.38257Z" fill="#FFC53B" stroke="black" stroke-linecap="round" stroke-linejoin="round"/>
<path d="M59.7755 7.37164H57.0605C56.1587 7.37164 55.4276 8.10276 55.4276 9.00464V11.7196C55.4276 12.6214 56.1587 13.3526 57.0605 13.3526H59.7755C60.6774 13.3526 61.4085 12.6214 61.4085 11.7196V9.00464C61.4085 8.10276 60.6774 7.37164 59.7755 7.37164Z" fill="#2F318B" stroke="black" stroke-linecap="round" stroke-linejoin="round"/>
<path d="M49.5727 7.37164H46.8577C45.9558 7.37164 45.2247 8.10276 45.2247 9.00464V11.7196C45.2247 12.6214 45.9558 13.3526 46.8577 13.3526H49.5727C50.4745 13.3526 51.2057 12.6214 51.2057 11.7196V9.00464C51.2057 8.10276 50.4745 7.37164 49.5727 7.37164Z" fill="#4137C7" stroke="black" stroke-linecap="round" stroke-linejoin="round"/>
<path d="M1 220.93C2.16694 219.769 3.74649 219.117 5.39307 219.117C7.03964 219.117 8.61919 219.769 9.78613 220.93V220.93C10.9531 222.093 12.533 222.745 14.18 222.745C15.8269 222.745 17.4068 222.093 18.5738 220.93L19.2183 220.289C20.3853 219.127 21.9648 218.475 23.6114 218.475C25.258 218.475 26.8375 219.127 28.0044 220.289L28.9634 221.243C30.1303 222.405 31.7099 223.057 33.3565 223.057C35.003 223.057 36.5826 222.405 37.7495 221.243L38.5403 220.456C39.7073 219.293 41.2872 218.641 42.9342 218.641C44.5811 218.641 46.161 219.293 47.328 220.456" stroke="#070707" stroke-linecap="round" stroke-linejoin="round"/>
<path d="M38.5389 220.479C39.7059 219.317 41.2858 218.664 42.9327 218.664C44.5797 218.664 46.1596 219.317 47.3266 220.479L48.2201 221.369C49.3871 222.532 50.967 223.184 52.614 223.184C54.2609 223.184 55.8408 222.532 57.0078 221.369L57.5527 220.828C58.7196 219.666 60.2992 219.014 61.9457 219.014C63.5923 219.014 65.1719 219.666 66.3388 220.828V220.828C67.5058 221.99 69.0857 222.642 70.7326 222.642C72.3796 222.642 73.9595 221.99 75.1265 220.828L75.7694 220.185C76.9364 219.023 78.5163 218.37 80.1633 218.37C81.8102 218.37 83.3901 219.023 84.5571 220.185L85.5161 221.141C86.683 222.302 88.2625 222.954 89.9091 222.954C91.5557 222.954 93.1352 222.302 94.3022 221.141L95.093 220.351C96.26 219.189 97.8399 218.537 99.4868 218.537C101.134 218.537 102.714 219.189 103.881 220.351" stroke="#070707" stroke-linecap="round" stroke-linejoin="round"/>
<path d="M1 225.744C2.16694 224.582 3.74649 223.93 5.39307 223.93C7.03964 223.93 8.61918 224.582 9.78613 225.744V225.744C10.9531 226.906 12.533 227.558 14.18 227.558C15.8269 227.558 17.4068 226.906 18.5738 225.744L19.2261 225.096C20.393 223.935 21.9726 223.282 23.6192 223.282C25.2657 223.282 26.8453 223.935 28.0122 225.096L28.9712 226.05C30.1381 227.212 31.7177 227.864 33.3642 227.864C35.0108 227.864 36.5903 227.212 37.7573 226.05L38.5481 225.263C39.7151 224.101 41.295 223.448 42.9419 223.448C44.5889 223.448 46.1688 224.101 47.3358 225.263" stroke="#070707" stroke-linecap="round" stroke-linejoin="round"/>
<path d="M38.5389 225.292C39.7059 224.13 41.2858 223.478 42.9327 223.478C44.5797 223.478 46.1596 224.13 47.3266 225.292L48.2201 226.183C49.3871 227.345 50.967 227.997 52.614 227.997C54.2609 227.997 55.8408 227.345 57.0078 226.183L57.5527 225.641C58.7196 224.479 60.2992 223.827 61.9457 223.827C63.5923 223.827 65.1719 224.479 66.3388 225.641V225.641C67.5058 226.803 69.0857 227.456 70.7326 227.456C72.3796 227.456 73.9595 226.803 75.1265 225.641L75.7694 224.998C76.9364 223.836 78.5163 223.184 80.1633 223.184C81.8102 223.184 83.3901 223.836 84.5571 224.998L85.5161 225.954C86.683 227.116 88.2625 227.768 89.9091 227.768C91.5557 227.768 93.1352 227.116 94.3022 225.954L95.093 225.165C96.26 224.003 97.8399 223.35 99.4868 223.35C101.134 223.35 102.714 224.003 103.881 225.165" stroke="#070707" stroke-linecap="round" stroke-linejoin="round"/>
<path d="M264.861 48.9579C266.186 48.9579 267.26 47.8839 267.26 46.559C267.26 45.2341 266.186 44.1601 264.861 44.1601C263.536 44.1601 262.462 45.2341 262.462 46.559C262.462 47.8839 263.536 48.9579 264.861 48.9579Z" stroke="#070707" stroke-linecap="round" stroke-linejoin="round"/>
<path d="M255.222 41.6709C257.115 41.6709 258.65 40.1362 258.65 38.243C258.65 36.3498 257.115 34.8151 255.222 34.8151C253.329 34.8151 251.794 36.3498 251.794 38.243C251.794 40.1362 253.329 41.6709 255.222 41.6709Z" fill="#FFC53B" stroke="black" stroke-linecap="round" stroke-linejoin="round"/>
<path d="M196.264 218.371C194.471 218.371 193.017 219.772 193.017 221.511V247.767C193.017 253.041 197.438 257.316 202.89 257.316H219.531C222.772 257.316 225.398 259.856 225.398 262.991" stroke="#070707" stroke-linecap="round" stroke-linejoin="round"/>
<path d="M186.097 218.371C187.889 218.371 189.343 219.772 189.343 221.511V247.767C189.343 253.041 184.924 257.316 179.47 257.316H162.829C159.59 257.316 156.962 259.856 156.962 262.991" stroke="#070707" stroke-linecap="round" stroke-linejoin="round"/>
<path d="M191.18 215.762C234.508 215.762 269.632 182.533 269.632 141.544C269.632 100.554 234.508 67.3257 191.18 67.3257C147.852 67.3257 112.727 100.554 112.727 141.544C112.727 182.533 147.852 215.762 191.18 215.762Z" fill="#F2F4F8" stroke="#070707" stroke-linecap="round" stroke-linejoin="round"/>
<path d="M191.18 202.507C229.576 202.507 260.702 173.06 260.702 136.737C260.702 100.413 229.576 70.9668 191.18 70.9668C152.784 70.9668 121.658 100.413 121.658 136.737C121.658 173.06 152.784 202.507 191.18 202.507Z" fill="#DFE1E5"/>
<path d="M238.766 176.85C241.677 177.285 242.813 180.871 240.69 182.909C228.081 195.006 210.557 202.507 191.186 202.507C171.842 202.507 154.343 195.034 141.742 182.973C139.615 180.938 140.749 177.35 143.658 176.913C158.274 174.708 174.43 173.488 191.417 173.488C208.242 173.486 224.256 174.685 238.766 176.85Z" fill="#5F5D5D" stroke="#070707" stroke-linecap="round" stroke-linejoin="round"/>
<path d="M157.065 275C160.381 275 163.069 272.312 163.069 268.996C163.069 265.68 160.381 262.991 157.065 262.991C153.748 262.991 151.06 265.68 151.06 268.996C151.06 272.312 153.748 275 157.065 275Z" fill="#5F5D5D" stroke="#070707" stroke-linecap="round" stroke-linejoin="round"/>
<path d="M191.476 275C194.792 275 197.48 272.312 197.48 268.996C197.48 265.68 194.792 262.991 191.476 262.991C188.16 262.991 185.471 265.68 185.471 268.996C185.471 272.312 188.16 275 191.476 275Z" fill="#5F5D5D" stroke="#070707" stroke-linecap="round" stroke-linejoin="round"/>
<path d="M225.475 275C228.791 275 231.479 272.312 231.479 268.996C231.479 265.68 228.791 262.991 225.475 262.991C222.158 262.991 219.47 265.68 219.47 268.996C219.47 272.312 222.158 275 225.475 275Z" fill="#5F5D5D" stroke="#070707" stroke-linecap="round" stroke-linejoin="round"/>
<path d="M320.824 167.233C312.491 179.842 296.785 186.745 289.845 182.842C283.137 179.069 282.552 160.481 290.886 147.864C299.221 135.247 313.148 129.353 321.25 134.702C329.353 140.051 329.158 154.614 320.824 167.233Z" fill="#00864A" stroke="black" stroke-linecap="round" stroke-linejoin="round"/>
<path d="M290.773 225.35C290.773 225.35 282.379 157.257 321.191 135.01" stroke="#070707" stroke-linecap="round" stroke-linejoin="round"/>
<path d="M326.688 150.206L303.446 152.578" stroke="#070707" stroke-linecap="round" stroke-linejoin="round"/>
<path d="M326.37 152.659L301.978 155.148" stroke="#070707" stroke-linecap="round" stroke-linejoin="round"/>
<path d="M291.164 148.001L297.07 165.455" stroke="#070707" stroke-linecap="round" stroke-linejoin="round"/>
<path d="M351.631 202.015C349.055 208.662 337.762 210.485 326.412 206.084C315.062 201.683 310.681 192.942 311.178 190.037C311.801 186.376 325.201 180.124 335.745 182.009C347.727 184.154 354.209 195.363 351.631 202.015Z" fill="#00864A" stroke="black" stroke-linecap="round" stroke-linejoin="round"/>
<path d="M283.831 225.35C283.831 225.35 282.813 195.439 314.401 189.299C331.696 185.938 345.068 194.63 351.208 201.999" stroke="#070707" stroke-linecap="round" stroke-linejoin="round"/>
<path d="M331.666 189.768L342.451 184.825" stroke="#070707" stroke-linecap="round" stroke-linejoin="round"/>
<path d="M334.358 190.626L344.402 185.926" stroke="#070707" stroke-linecap="round" stroke-linejoin="round"/>
<path d="M327.203 188.901L331.406 207.219" stroke="#070707" stroke-linecap="round" stroke-linejoin="round"/>
<path d="M277.502 180.91C282.628 188.647 281.825 199.605 277.657 202.152C275.129 203.698 264.5 200.906 259.375 193.166C254.251 185.426 254.268 176.145 259.232 172.856C264.197 169.566 272.377 173.173 277.502 180.91Z" fill="#00864A" stroke="black" stroke-linecap="round" stroke-linejoin="round"/>
<path d="M280.055 225.35C280.055 225.35 282.935 186.667 259.382 173.257" stroke="#070707" stroke-linecap="round" stroke-linejoin="round"/>
<path d="M256.103 184.551H270.963" stroke="#070707" stroke-linecap="round" stroke-linejoin="round"/>
<path d="M256.852 187.122H272.432" stroke="#070707" stroke-linecap="round" stroke-linejoin="round"/>
<path d="M277.855 181.977L275.184 192.632" stroke="#070707" stroke-linecap="round" stroke-linejoin="round"/>
<path d="M306.85 231.955V258.855C306.851 259.723 306.681 260.582 306.349 261.384C306.017 262.186 305.531 262.915 304.917 263.528C304.303 264.142 303.575 264.628 302.773 264.96C301.971 265.291 301.112 265.462 300.244 265.46H273.345C272.477 265.461 271.618 265.291 270.816 264.959C270.014 264.628 269.286 264.141 268.672 263.528C268.059 262.914 267.572 262.186 267.24 261.384C266.908 260.582 266.738 259.723 266.738 258.855V231.955C266.74 230.203 267.436 228.524 268.675 227.285C269.914 226.047 271.593 225.351 273.345 225.35H300.244C301.996 225.35 303.676 226.046 304.914 227.285C306.153 228.524 306.85 230.203 306.85 231.955V231.955Z" fill="#FFC53B" stroke="#070707" stroke-linecap="round" stroke-linejoin="round"/>
<path d="M300.451 225.35H273.137C269.603 225.35 266.738 228.215 266.738 231.748V259.062C266.738 262.596 269.603 265.46 273.137 265.46H300.451C303.984 265.46 306.849 262.596 306.849 259.062V231.748C306.849 228.215 303.984 225.35 300.451 225.35Z" stroke="#FFC3D5" stroke-miterlimit="10"/>
<path d="M306.85 231.955V258.855C306.851 259.723 306.681 260.582 306.349 261.384C306.017 262.186 305.531 262.915 304.917 263.528C304.303 264.142 303.575 264.628 302.773 264.96C301.971 265.291 301.112 265.462 300.244 265.46H273.345C272.477 265.461 271.618 265.291 270.816 264.959C270.014 264.628 269.286 264.141 268.672 263.528C268.059 262.914 267.572 262.186 267.24 261.384C266.908 260.582 266.738 259.723 266.738 258.855V231.955C266.74 230.203 267.436 228.524 268.675 227.285C269.914 226.047 271.593 225.351 273.345 225.35H300.244C301.996 225.35 303.676 226.046 304.914 227.285C306.153 228.524 306.85 230.203 306.85 231.955V231.955Z" stroke="#070707" stroke-linecap="round" stroke-linejoin="round"/>
<path d="M218.767 129.409C218.767 129.409 235.352 156.873 227.796 170.006C220.239 183.138 206.926 188.017 191.182 186.323C151.295 182.034 102.19 151.331 103.428 141.426C105.098 128.06 178.535 143.379 178.535 143.379L185.073 129.543L218.767 129.409Z" fill="#D7D0F6" stroke="black" stroke-linecap="round" stroke-linejoin="round"/>
<path d="M103.896 139.852C101.679 142.134 85.4895 173.876 183.216 196.969L186.885 190.226C186.885 190.226 121.408 121.817 103.896 139.852Z" fill="#D7D0F6" stroke="black" stroke-linecap="round" stroke-linejoin="round"/>
<path d="M187.019 190.226C187.019 190.226 154.234 155.978 128.858 142.333" stroke="#4B556A" stroke-miterlimit="10"/>
<path d="M183.216 196.969C187.73 197.776 206.909 204.406 211.154 203.522C215.4 202.638 208.664 190.041 206.017 189.511C203.371 188.982 190.294 190.456 186.89 190.226C183.485 189.995 183.216 196.969 183.216 196.969Z" fill="#F4CABE" stroke="#0F0F0F" stroke-linecap="round" stroke-linejoin="round"/>
<path d="M206.43 168.743C189.412 204.624 140.937 245.549 140.937 245.549C140.937 245.549 137.274 242.377 132.675 242.181C132.675 242.181 176.052 145.718 200.548 141.038C220.355 137.247 209.289 162.709 206.43 168.743Z" fill="#D7D0F6" stroke="black" stroke-linecap="round" stroke-linejoin="round"/>
<path d="M132.661 241.953C128.338 248.847 121.651 263.343 117.455 268.37C116.092 270.003 128.131 270.489 129.959 269.035C132.47 267.038 132.661 259.564 137.647 258.605C141.136 257.937 144.632 255.608 143.006 252.246C140.714 247.513 141.047 245.273 141.047 245.273C137.103 240.872 132.661 241.953 132.661 241.953Z" fill="#F4CABE" stroke="#0F0F0F" stroke-linecap="round" stroke-linejoin="round"/>
<path d="M186.368 77.7277C194.328 90.7294 183.852 120.849 179.033 125.348C170.107 133.69 131.196 132.509 131.196 132.509L129.616 128.928C129.616 128.928 151.06 117.236 168.173 116.308C168.173 116.308 172.739 92.8388 174.254 86.1075C176.162 77.625 180.874 68.7532 186.368 77.7277Z" fill="#F4CABE" stroke="#0F0F0F" stroke-linecap="round" stroke-linejoin="round"/>
<path d="M134.003 129.24C133.146 127.091 125.799 128.436 122.881 129.792C120.398 130.946 117.395 134.042 116.904 134.697C116.414 135.353 115.323 138.662 115.323 138.662C115.323 138.662 116.38 139.78 117.804 137.831C119.228 135.882 122.923 133.65 123.839 134.139C125.901 135.239 120.907 135.672 120.36 136.463C119.814 137.254 120.074 137.724 120.074 137.724C120.074 137.724 124.767 137.51 125.522 137.412C126.277 137.314 129.269 135.96 130.733 134.733C132.196 133.507 134.539 130.578 134.003 129.24Z" fill="#E38E32"/>
<path d="M218.019 69.8616C220.429 70.5761 227.982 73.3876 227.982 73.3876C227.982 73.3876 227.342 91.6417 225.2 95.96C216.228 114.052 219.02 130.722 219.02 130.722C219.02 130.722 197.771 134.258 184.772 130.848C184.772 130.848 186.472 117.083 183.695 115.436C180.918 113.789 176.369 110.089 177.624 102.638C178.879 95.1879 178.592 75.6495 180.115 74.387C181.637 73.1245 188.365 69.8398 190.103 69.846C191.84 69.8522 218.019 69.8616 218.019 69.8616Z" fill="white" stroke="#070707" stroke-linecap="round" stroke-linejoin="round"/>
<path d="M151.692 106.72H104.111C103.587 106.72 103.07 106.847 102.605 107.089C102.14 107.332 101.741 107.683 101.441 108.114C101.141 108.544 100.949 109.04 100.883 109.56C100.816 110.08 100.875 110.609 101.057 111.101L113.043 143.697H168.762L156.358 109.978C156.006 109.024 155.37 108.2 154.536 107.617C153.702 107.035 152.71 106.722 151.692 106.72Z" fill="#F9A09B" stroke="black" stroke-linecap="round" stroke-linejoin="round"/>
<path d="M150.757 108.373H104.366C103.855 108.373 103.351 108.497 102.898 108.734C102.445 108.97 102.055 109.313 101.763 109.732C101.47 110.152 101.283 110.635 101.218 111.142C101.152 111.65 101.21 112.165 101.387 112.645L113.081 144.43H167.41L155.315 111.551C154.971 110.618 154.35 109.814 153.535 109.246C152.72 108.677 151.75 108.373 150.757 108.373V108.373Z" fill="#F9A09B" stroke="black" stroke-linecap="round" stroke-linejoin="round"/>
<path d="M113.073 143.803H191.866C192.758 143.803 193.613 144.157 194.244 144.788C194.875 145.418 195.229 146.273 195.229 147.165V147.906H116.435C115.544 147.906 114.688 147.552 114.058 146.921C113.427 146.291 113.073 145.436 113.073 144.544V143.803V143.803Z" fill="#2F318B" stroke="black" stroke-linecap="round" stroke-linejoin="round"/>
<path d="M151.692 106.72H104.111C103.587 106.72 103.07 106.847 102.605 107.089C102.14 107.332 101.741 107.683 101.441 108.114C101.141 108.544 100.949 109.04 100.883 109.56C100.816 110.08 100.875 110.609 101.057 111.101L113.043 143.697H168.762L156.358 109.978C156.006 109.024 155.37 108.2 154.536 107.617C153.702 107.035 152.71 106.722 151.692 106.72Z" fill="#2F318B" stroke="black" stroke-linecap="round" stroke-linejoin="round"/>
<path d="M135.274 129.25C136.401 127.997 136.063 125.855 134.519 124.464C132.975 123.074 130.809 122.962 129.681 124.214C128.554 125.466 128.892 127.609 130.436 128.999C131.98 130.39 134.146 130.502 135.274 129.25Z" fill="black" stroke="black" stroke-linecap="round" stroke-linejoin="round"/>
<path d="M176.296 145.269H172.966V146.465H176.296V145.269Z" fill="#C8E8FF" stroke="black" stroke-linecap="round" stroke-linejoin="round"/>
<path d="M182.659 145.269H179.329V146.465H182.659V145.269Z" fill="#C8E8FF" stroke="black" stroke-linecap="round" stroke-linejoin="round"/>
<path d="M194.303 34.2298C194.303 34.2298 182.828 28.8467 175.717 40.1314C168.589 51.4425 178.363 56.4769 173.257 62.2524C167.733 68.5041 160.738 72.1655 166.408 84.5539C172.186 97.1867 157.45 92.529 160.637 106.592H185.622C185.622 106.592 196.372 102.83 193.146 93.5596C189.921 84.2893 183.009 83.0066 189.486 74.8275C194.351 68.6863 216.794 69.9379 218.81 70.4687C220.826 70.9996 229.416 73.9387 229.416 73.9387C229.416 73.9387 232.832 63.7188 227.947 58.0897C221.765 50.9692 211.456 56.2216 209.577 47.8636C208.307 42.2282 205.841 35.6838 201.744 34.4462C197.341 33.1168 194.303 34.2298 194.303 34.2298Z" fill="#1E1E1E"/>
<path d="M193.282 35.6433C193.282 35.6433 190.869 31.8963 178.617 40.438C171.045 45.7184 176.338 56.4722 171.232 62.2477C165.707 68.4995 158.715 72.1609 164.383 84.5492C170.161 97.182 155.425 92.5243 158.612 106.588" stroke="#1E1E1E" stroke-linecap="round" stroke-linejoin="round"/>
<path d="M203.055 53.8647C203.055 53.8647 202.672 62.3753 205.777 66.7419C207.89 69.7075 205.992 69.4584 213.359 70.3052C213.359 70.3052 214.128 81.2319 197.072 81.2319C184.416 81.2319 189.483 74.8275 189.483 74.8275C189.483 74.8275 194.767 67.1731 192.489 53.8647H203.055Z" fill="#F4CABE" stroke="#0F0F0F" stroke-linecap="round" stroke-linejoin="round"/>
<path d="M203.221 53.2031C203.221 53.2031 203.548 70.3053 189.872 70.3053C189.595 70.3043 189.323 70.2409 189.074 70.12C189.793 69.6188 194.282 65.9262 192.067 52.9821H203.221C203.221 52.9821 203.221 53.0568 203.221 53.1969V53.2031Z" fill="#0F0F0F"/>
<path d="M203.595 52.9229C203.595 52.9229 201.636 67.5436 192.351 67.6137C186.244 67.6588 182.716 59.0953 181.285 54.6057C179.652 49.4794 181.383 39.2331 190.095 39.3623C197.661 39.4759 201.615 49.7923 201.615 49.7923L203.595 52.9229Z" fill="#F4CABE" stroke="#0F0F0F" stroke-linecap="round" stroke-linejoin="round"/>
<path d="M201.809 52.1819C201.809 52.1819 201.439 50.9163 201.781 49.7736C201.999 49.0498 202.505 48.3726 203.573 48.1048" stroke="#070707" stroke-linecap="round" stroke-linejoin="round"/>
<path d="M203.573 50.6049L201.781 49.7737" stroke="#070707" stroke-linecap="round" stroke-linejoin="round"/>
<path d="M217.443 74.717C217.443 74.717 212.091 88.5905 220.652 96.0441C223.412 98.4461 227.486 96.2511 227.486 96.2511" fill="#F4CABE"/>
<path d="M217.443 74.717C217.443 74.717 212.091 88.5905 220.652 96.0441C223.412 98.4461 227.486 96.2511 227.486 96.2511" stroke="#0F0F0F" stroke-linecap="round" stroke-linejoin="round"/>
<path d="M221.46 88.7897C224.511 98.4507 228.557 112.108 228.557 112.108C212.507 112.98 188.309 122.714 185.362 123.92C180.471 125.01 173.545 128.97 172.214 129.766C170.969 130.474 169.011 132.437 168.419 133.225C167.796 134.047 166.347 137.006 166.347 137.006C166.656 137.159 167.007 137.203 167.344 137.133C167.681 137.062 167.984 136.88 168.206 136.617C168.777 135.994 169.736 134.493 170.505 133.763C169.808 135.515 169.155 137.324 169.155 137.324C169.155 137.324 170.885 137.747 173.102 137.031C174.163 136.688 175.337 134.652 176.579 133.312C177.822 131.972 180.532 132.605 183.245 132.146C185.959 131.687 187.842 127.708 187.842 127.708L187.805 127.642C194.849 127.759 231.896 128 239.966 120.46C244.792 115.956 238.537 86.6259 230.577 73.6257C227.076 67.9094 221.86 68.6769 219.414 72.3165C218.597 73.5292 217.621 74.2375 217.58 75.9546" fill="#F4CABE"/>
<path d="M221.46 88.7897C224.511 98.4507 228.557 112.108 228.557 112.108C212.507 112.98 188.309 122.714 185.362 123.92C180.471 125.01 173.545 128.97 172.214 129.766C170.969 130.474 169.011 132.437 168.419 133.225C167.796 134.047 166.347 137.006 166.347 137.006C166.656 137.159 167.007 137.203 167.344 137.133C167.681 137.062 167.984 136.88 168.206 136.617C168.777 135.994 169.736 134.493 170.505 133.763C169.808 135.515 169.155 137.324 169.155 137.324C169.155 137.324 170.885 137.747 173.102 137.031C174.163 136.688 175.337 134.652 176.579 133.312C177.822 131.972 180.532 132.605 183.245 132.146C185.959 131.687 187.842 127.708 187.842 127.708L187.805 127.642C194.849 127.759 231.896 128 239.966 120.46C244.792 115.956 238.537 86.6259 230.577 73.6257C227.076 67.9094 221.86 68.6769 219.414 72.3165C218.597 73.5292 217.621 74.2375 217.58 75.9546" stroke="#0F0F0F" stroke-linecap="round" stroke-linejoin="round"/>
<path d="M170.539 137.44C170.509 137.445 170.478 137.442 170.449 137.43C170.429 137.422 170.41 137.41 170.395 137.395C170.379 137.38 170.367 137.362 170.358 137.342C170.35 137.322 170.346 137.3 170.347 137.279C170.347 137.257 170.353 137.236 170.362 137.216C170.571 136.721 172.423 132.367 173.239 131.777C174.654 130.753 176.497 129.409 176.497 129.409L176.69 129.674C176.69 129.674 174.845 131.019 173.432 132.042C172.809 132.496 171.22 136.022 170.664 137.335C170.654 137.361 170.637 137.385 170.616 137.404C170.594 137.422 170.568 137.435 170.539 137.44V137.44Z" fill="#0F0F0F" stroke="#070707" stroke-linecap="round" stroke-linejoin="round"/>
<path d="M172.302 137.142C172.272 137.146 172.242 137.143 172.215 137.132C172.187 137.12 172.163 137.102 172.145 137.079C172.127 137.055 172.116 137.027 172.112 136.998C172.109 136.968 172.114 136.938 172.126 136.911C172.2 136.755 173.972 132.906 174.8 132.306C176.215 131.284 178.058 129.94 178.058 129.94L178.251 130.205C178.251 130.205 176.407 131.548 174.993 132.573C174.37 133.027 172.924 135.957 172.423 137.048C172.412 137.072 172.395 137.093 172.374 137.11C172.353 137.126 172.328 137.137 172.302 137.142V137.142Z" fill="#0F0F0F" stroke="#070707" stroke-linecap="round" stroke-linejoin="round"/>
<path d="M202.625 56.6621C202.625 56.6621 202.601 75.9647 212.793 77.3237C222.985 78.6827 230.256 70.6777 230.256 70.6777" fill="#1E1E1E"/>
<path d="M188.428 53.1736L187.877 57.7223L189.801 58.8447" stroke="#070707" stroke-linecap="round" stroke-linejoin="round"/>
<path d="M192.442 53.2786C192.85 53.1357 193.027 52.5838 192.838 52.046C192.649 51.5081 192.166 51.188 191.759 51.3309C191.351 51.4739 191.174 52.0257 191.363 52.5636C191.552 53.1014 192.035 53.4216 192.442 53.2786Z" fill="#1C0E0C"/>
<path d="M185.555 55.0401C185.962 54.8972 186.139 54.3453 185.95 53.8075C185.762 53.2696 185.278 52.9495 184.871 53.0924C184.464 53.2353 184.287 53.7872 184.476 54.3251C184.664 54.8629 185.148 55.1831 185.555 55.0401Z" fill="#1C0E0C"/>
<path d="M189.645 49.1727C189.645 49.1727 190.99 47.5677 193.889 48.9657" stroke="#070707" stroke-linecap="round" stroke-linejoin="round"/>
<path d="M182.536 51.4176C182.536 51.4176 183.294 49.4623 186.09 50.2936" stroke="#070707" stroke-linecap="round" stroke-linejoin="round"/>
<path d="M186.745 38.6306C186.745 38.6306 191.248 36.7626 192.751 41.2195C194.253 45.6764 196.7 49.3985 201.636 46.8097C206.573 44.2208 204.552 40.8568 204.552 40.8568" fill="#1C0E0C"/>
<path d="M202.281 52.9883C204.056 52.9883 205.495 51.549 205.495 49.7737C205.495 47.9983 204.056 46.559 202.281 46.559C200.505 46.559 199.066 47.9983 199.066 49.7737C199.066 51.549 200.505 52.9883 202.281 52.9883Z" fill="#F4CABE"/>
<path d="M201.06 51.7351C201.06 51.7351 200.688 50.4695 201.032 49.3269C201.249 48.603 201.755 47.9258 202.823 47.6581" stroke="#070707" stroke-linecap="round" stroke-linejoin="round"/>
<path d="M202.822 50.1582L201.032 49.3269" stroke="#070707" stroke-linecap="round" stroke-linejoin="round"/>
<path d="M189.801 61.1502C189.801 61.1502 192.802 61.667 194.147 58.6999" stroke="#070707" stroke-linecap="round" stroke-linejoin="round"/>
</svg>
